<svg><defs><path d="M469.333 64h-320c-14.72 0-26.347 7.467-34.027 18.773L0 255.893l115.307 173.12C122.987 440.32 136 448 150.72 448h318.613C492.907 448 512 428.907 512 405.333V106.667C512 83.093 492.907 64 469.333 64zM192 288c-17.707 0-32-14.293-32-32s14.293-32 32-32 32 14.293 32 32-14.293 32-32 32zm106.667 0c-17.707 0-32-14.293-32-32s14.293-32 32-32 32 14.293 32 32-14.294 32-32 32zm106.666 0c-17.707 0-32-14.293-32-32s14.293-32 32-32 32 14.293 32 32-14.293 32-32 32z" id="shape-icon-1"/><path d="M30 0C13.458 0 0 13.458 0 30s13.458 30 30 30 30-13.458 30-30S46.542 0 30 0zm15.563 30.826l-22 15a1.002 1.002 0 0 1-1.03.058A.999.999 0 0 1 22 45V15a.999.999 0 0 1 1.564-.826l22 15a1.001 1.001 0 0 1-.001 1.652z" id="shape-icon-2"/></defs></svg>