<svg>
    <defs>

        <g id="shape-icon-1">
            <g>
                <path d="M469.333,64h-320c-14.72,0-26.347,7.467-34.027,18.773L0,255.893l115.307,173.12C122.987,440.32,136,448,150.72,448
			h318.613C492.907,448,512,428.907,512,405.333V106.667C512,83.093,492.907,64,469.333,64z M192,288c-17.707,0-32-14.293-32-32
			s14.293-32,32-32s32,14.293,32,32S209.707,288,192,288z M298.667,288c-17.707,0-32-14.293-32-32s14.293-32,32-32s32,14.293,32,32
			S316.373,288,298.667,288z M405.333,288c-17.707,0-32-14.293-32-32s14.293-32,32-32s32,14.293,32,32S423.04,288,405.333,288z"/>
            </g>
        </g>
        <g id="shape-icon-2">
            <g>
                <path d="M30,0C13.458,0,0,13.458,0,30s13.458,30,30,30s30-13.458,30-30S46.542,0,30,0z M45.563,30.826l-22,15
	C23.394,45.941,23.197,46,23,46c-0.16,0-0.321-0.038-0.467-0.116C22.205,45.711,22,45.371,22,45V15c0-0.371,0.205-0.711,0.533-0.884
	c0.328-0.174,0.724-0.15,1.031,0.058l22,15C45.836,29.36,46,29.669,46,30S45.836,30.64,45.563,30.826z"/>
            </g>
        </g>


    </defs>
</svg>