<?xml version="1.0" encoding="iso-8859-1"?>
<svg version="1.1" class="icons label" xmlns="http://www.w3.org/2000/svg" xmlns:xlink="http://www.w3.org/1999/xlink" x="0px" y="0px"
	 width="25px" height="25px" viewBox="0 0 512 512" style="enable-background:new 0 0 512 512;" xml:space="preserve">
<g>
		<path d="M469.333,64h-320c-14.72,0-26.347,7.467-34.027,18.773L0,255.893l115.307,173.12C122.987,440.32,136,448,150.72,448
			h318.613C492.907,448,512,428.907,512,405.333V106.667C512,83.093,492.907,64,469.333,64z M192,288c-17.707,0-32-14.293-32-32
			s14.293-32,32-32s32,14.293,32,32S209.707,288,192,288z M298.667,288c-17.707,0-32-14.293-32-32s14.293-32,32-32s32,14.293,32,32
			S316.373,288,298.667,288z M405.333,288c-17.707,0-32-14.293-32-32s14.293-32,32-32s32,14.293,32,32S423.04,288,405.333,288z"/>
	</g>
</svg>
