<svg  class="icons novaposhta" xmlns="http://www.w3.org/2000/svg" width="25px" height="25px" viewBox="0 0 23.97 25">
    <defs>
        <style>.cls-1{fill:#f7f7f7;}</style>
    </defs>
    <title>novaposhta</title>
    <path id="path3461" class="cls-1"
          d="M19.24,7.4c.07,0,.17,0,.26.16L23.81,12a.59.59,0,0,1,0,.86L19.5,17.37c-.09.14-.19.17-.26.13s-.12-.16-.12-.33V7.69C19.12,7.53,19.16,7.43,19.24,7.4Z"
          transform="translate(-0.03 0)"/>
    <path id="path3463" class="cls-1"
          d="M11.86,0h.31l.29.13L16.9,4.77c.19.27.12.47-.19.47H14.87a.58.58,0,0,0-.57.6V9.28a.6.6,0,0,1-.64.6H10.43a.59.59,0,0,1-.57-.6V5.84a.58.58,0,0,0-.57-.6h-2c-.31,0-.38-.2-.19-.47L11.57.13Z"
          transform="translate(-0.03 0)"/>
    <path id="path3465" class="cls-1"
          d="M4.91,7.3c.08,0,.13.16.13.33v9.68c0,.16,0,.26-.13.3s-.18,0-.31-.1L.22,12.86a.59.59,0,0,1,0-.86L4.6,7.43C4.73,7.29,4.84,7.26,4.91,7.3Z"
          transform="translate(-0.03 0)"/>
    <path id="path3467" class="cls-1"
          d="M10.43,14.92h3.23a.59.59,0,0,1,.64.6v3.64a.6.6,0,0,0,.57.67h1.71c.32,0,.44.19.19.39L12.46,24.8A.62.62,0,0,1,12,25a.64.64,0,0,1-.45-.2L7.26,20.22c-.25-.2-.13-.39.19-.39H9.29a.6.6,0,0,0,.57-.67V15.52A.58.58,0,0,1,10.43,14.92Z"
          transform="translate(-0.03 0)"/>
</svg>